<svg width="33" height="31" viewBox="0 0 33 31" fill="none" xmlns="http://www.w3.org/2000/svg">
<path d="M1.61062 15.09C1.18024 15.2076 0.795782 15.4532 0.508239 15.7944C0.220696 16.1355 0.0436608 16.556 0.000619918 17C-0.0110331 17.4932 0.141886 17.9761 0.435238 18.3727C0.728589 18.7693 1.14566 19.0568 1.62062 19.19L1.61062 15.09Z" fill="#58595B"/>
<path d="M24.9206 9.09003H7.20062C4.05812 9.09003 1.51062 11.6375 1.51062 14.78V25.17C1.51062 28.3125 4.05812 30.86 7.20062 30.86H24.9206C28.0631 30.86 30.6106 28.3125 30.6106 25.17V14.78C30.6106 11.6375 28.0631 9.09003 24.9206 9.09003Z" fill="url(#paint0_linear_163_1121)"/>
<path d="M9.61065 18.8C10.8202 18.8 11.8007 17.7389 11.8007 16.43C11.8007 15.1211 10.8202 14.06 9.61065 14.06C8.40115 14.06 7.42065 15.1211 7.42065 16.43C7.42065 17.7389 8.40115 18.8 9.61065 18.8Z" fill="#58595B" stroke="white" stroke-width="0.95" stroke-miterlimit="10"/>
<path d="M21.8607 18.8C23.0702 18.8 24.0507 17.7389 24.0507 16.43C24.0507 15.1211 23.0702 14.06 21.8607 14.06C20.6512 14.06 19.6707 15.1211 19.6707 16.43C19.6707 17.7389 20.6512 18.8 21.8607 18.8Z" fill="#58595B" stroke="white" stroke-width="0.95" stroke-miterlimit="10"/>
<path d="M10.792 16.554C10.8715 15.8459 10.4064 15.2126 9.75326 15.1393C9.10013 15.0661 8.50629 15.5806 8.42688 16.2887C8.34746 16.9967 8.81254 17.63 9.46567 17.7033C10.1188 17.7765 10.7126 17.262 10.792 16.554Z" fill="#414042"/>
<path d="M21.8607 17.72C22.5179 17.72 23.0507 17.1425 23.0507 16.43C23.0507 15.7176 22.5179 15.14 21.8607 15.14C21.2034 15.14 20.6707 15.7176 20.6707 16.43C20.6707 17.1425 21.2034 17.72 21.8607 17.72Z" fill="#414042"/>
<path d="M17.2507 24.24C17.1267 24.6515 16.8735 25.0121 16.5286 25.2684C16.1837 25.5247 15.7654 25.6631 15.3357 25.6631C14.9059 25.6631 14.4876 25.5247 14.1427 25.2684C13.7978 25.0121 13.5446 24.6515 13.4207 24.24H17.2507Z" stroke="white" stroke-width="0.95" stroke-miterlimit="10"/>
<path d="M30.6106 15.09C31.0241 15.2557 31.3785 15.5414 31.6281 15.9104C31.8777 16.2793 32.0111 16.7146 32.0111 17.16C32.0111 17.6055 31.8777 18.0407 31.6281 18.4097C31.3785 18.7786 31.0241 19.0643 30.6106 19.23V15.09Z" fill="#58595B"/>
<path d="M7.59063 2.58002L7.40063 9.09002" stroke="#A7A9AC" stroke-width="0.48" stroke-miterlimit="10"/>
<path d="M21.8606 2.5V9.11" stroke="#A7A9AC" stroke-width="0.48" stroke-miterlimit="10"/>
<path d="M7.42059 2.89C8.07781 2.89 8.61059 2.31244 8.61059 1.6C8.61059 0.88755 8.07781 0.309998 7.42059 0.309998C6.76337 0.309998 6.23059 0.88755 6.23059 1.6C6.23059 2.31244 6.76337 2.89 7.42059 2.89Z" fill="#58595B"/>
<path d="M21.8607 2.58C22.5179 2.58 23.0507 2.00245 23.0507 1.29C23.0507 0.577553 22.5179 0 21.8607 0C21.2034 0 20.6707 0.577553 20.6707 1.29C20.6707 2.00245 21.2034 2.58 21.8607 2.58Z" fill="#58595B"/>
<path d="M25.5206 0.880005H31.1006C32.1006 0.880005 32.5306 1.36 32.5306 1.96V5.5C32.5499 5.79821 32.4502 6.0919 32.2534 6.31679C32.0566 6.54168 31.7788 6.67947 31.4806 6.7H25.8706L24.4506 8.27001V2.09C24.4412 1.94024 24.4613 1.79007 24.51 1.64812C24.5587 1.50617 24.635 1.37523 24.7344 1.26281C24.8338 1.15039 24.9544 1.05871 25.0893 0.993015C25.2243 0.927324 25.3708 0.88892 25.5206 0.880005Z" fill="#4F93F8" stroke="#4F93F8" stroke-width="0.27" stroke-miterlimit="10"/>
<path d="M26.2806 2.91999L30.7106 2.85999" stroke="white" stroke-width="0.54" stroke-miterlimit="10"/>
<path d="M26.2906 4.93L30.7206 4.87" stroke="white" stroke-width="0.54" stroke-miterlimit="10"/>
<defs>
<linearGradient id="paint0_linear_163_1121" x1="-3" y1="8.99994" x2="46" y2="39.9999" gradientUnits="userSpaceOnUse">
<stop stop-color="#B7B7B7"/>
<stop offset="1" stop-color="#898989" stop-opacity="0"/>
</linearGradient>
</defs>
</svg>
