<svg width="29" height="27" viewBox="0 0 29 27" fill="none" xmlns="http://www.w3.org/2000/svg">
<path d="M10.15 0H3.25825C1.68489 0 0.409424 1.27546 0.409424 2.84882V8.76823C0.409424 10.3416 1.68489 11.6171 3.25825 11.6171H10.15C11.7234 11.6171 12.9988 10.3416 12.9988 8.76823V2.84882C12.9988 1.27546 11.7234 0 10.15 0Z" fill="#80B2FE"/>
<path d="M26.1512 0H19.2595C17.6861 0 16.4106 1.27546 16.4106 2.84882V8.76823C16.4106 10.3416 17.6861 11.6171 19.2595 11.6171H26.1512C27.7246 11.6171 29.0001 10.3416 29.0001 8.76823V2.84882C29.0001 1.27546 27.7246 0 26.1512 0Z" fill="#DCE7F8"/>
<path d="M9.74059 14.8412H2.84882C1.27546 14.8412 0 16.1166 0 17.69V23.6094C0 25.1828 1.27546 26.4582 2.84882 26.4582H9.74059C11.3139 26.4582 12.5894 25.1828 12.5894 23.6094V17.69C12.5894 16.1166 11.3139 14.8412 9.74059 14.8412Z" fill="#4F93F8"/>
<path d="M26.1512 14.8412H19.2595C17.6861 14.8412 16.4106 16.1166 16.4106 17.69V23.6094C16.4106 25.1828 17.6861 26.4582 19.2595 26.4582H26.1512C27.7246 26.4582 29.0001 25.1828 29.0001 23.6094V17.69C29.0001 16.1166 27.7246 14.8412 26.1512 14.8412Z" fill="#4F93F8"/>
</svg>
