<svg width="37" height="24" viewBox="0 0 37 24" fill="none" xmlns="http://www.w3.org/2000/svg">
<g clip-path="url(#clip0_163_1094)">
<path d="M27.9 0H1.77C0.792456 0 0 0.792456 0 1.77V19.92C0 20.8975 0.792456 21.69 1.77 21.69H27.9C28.8775 21.69 29.67 20.8975 29.67 19.92V1.77C29.67 0.792456 28.8775 0 27.9 0Z" fill="#FFD5CC"/>
<path d="M1 0L14.3153 10L28 0.0720576" fill="#FF5D39"/>
<path d="M23.19 16.49C22.9933 16.5468 22.8188 16.6626 22.6901 16.8218C22.5613 16.9809 22.4845 17.1758 22.47 17.38C22.4611 17.6031 22.5272 17.8228 22.6577 18.0041C22.7882 18.1853 22.9756 18.3176 23.19 18.38V16.49Z" fill="#58595B"/>
<path d="M33.66 13.78H25.72C24.3007 13.78 23.15 14.9306 23.15 16.35V21.08C23.15 22.4994 24.3007 23.65 25.72 23.65H33.66C35.0794 23.65 36.23 22.4994 36.23 21.08V16.35C36.23 14.9306 35.0794 13.78 33.66 13.78Z" fill="#6D6E71"/>
<path d="M33.66 13.78H25.72C24.3007 13.78 23.15 14.9306 23.15 16.35V21.08C23.15 22.4994 24.3007 23.65 25.72 23.65H33.66C35.0794 23.65 36.23 22.4994 36.23 21.08V16.35C36.23 14.9306 35.0794 13.78 33.66 13.78Z" fill="url(#paint0_linear_163_1094)" fill-opacity="0.8"/>
<path d="M26.7901 18.17C27.3313 18.17 27.7701 17.6909 27.7701 17.1C27.7701 16.5091 27.3313 16.03 26.7901 16.03C26.2488 16.03 25.8101 16.5091 25.8101 17.1C25.8101 17.6909 26.2488 18.17 26.7901 18.17Z" fill="#58595B" stroke="white" stroke-width="0.43" stroke-miterlimit="10"/>
<path d="M32.2999 18.17C32.8412 18.17 33.2799 17.6909 33.2799 17.1C33.2799 16.5091 32.8412 16.03 32.2999 16.03C31.7587 16.03 31.3199 16.5091 31.3199 17.1C31.3199 17.6909 31.7587 18.17 32.2999 18.17Z" fill="#58595B" stroke="white" stroke-width="0.43" stroke-miterlimit="10"/>
<path d="M27.32 17.1504C27.3525 16.8317 27.1384 16.5488 26.8417 16.5185C26.545 16.4882 26.2781 16.722 26.2456 17.0407C26.213 17.3593 26.4272 17.6422 26.7239 17.6725C27.0205 17.7028 27.2874 17.469 27.32 17.1504Z" fill="#414042"/>
<path d="M32.3 17.68C32.5982 17.68 32.84 17.4203 32.84 17.1C32.84 16.7797 32.5982 16.52 32.3 16.52C32.0018 16.52 31.76 16.7797 31.76 17.1C31.76 17.4203 32.0018 17.68 32.3 17.68Z" fill="#414042"/>
<path d="M30.22 20.64C30.1774 20.8364 30.0688 21.0123 29.9124 21.1385C29.7559 21.2647 29.561 21.3335 29.36 21.3335C29.159 21.3335 28.9641 21.2647 28.8076 21.1385C28.6512 21.0123 28.5426 20.8364 28.5 20.64H30.22Z" stroke="white" stroke-width="0.43" stroke-miterlimit="10"/>
<path d="M36.23 16.49C36.4117 16.5599 36.5691 16.6814 36.6828 16.8395C36.7965 16.9976 36.8615 17.1854 36.87 17.38C36.8849 17.592 36.8318 17.8032 36.7185 17.983C36.6052 18.1628 36.4376 18.3019 36.24 18.38L36.23 16.49Z" fill="#58595B"/>
<path d="M25.88 10.82L25.79 13.78" stroke="#A7A9AC" stroke-width="0.21" stroke-miterlimit="10"/>
<path d="M32.3 10.79V13.79" stroke="#A7A9AC" stroke-width="0.21" stroke-miterlimit="10"/>
<path d="M25.8 10.96C26.0982 10.96 26.34 10.7003 26.34 10.38C26.34 10.0597 26.0982 9.79999 25.8 9.79999C25.5018 9.79999 25.26 10.0597 25.26 10.38C25.26 10.7003 25.5018 10.96 25.8 10.96Z" fill="#58595B"/>
<path d="M32.3 10.82C32.5982 10.82 32.84 10.5603 32.84 10.24C32.84 9.91968 32.5982 9.66 32.3 9.66C32.0018 9.66 31.76 9.91968 31.76 10.24C31.76 10.5603 32.0018 10.82 32.3 10.82Z" fill="#58595B"/>
</g>
<defs>
<linearGradient id="paint0_linear_163_1094" x1="24.5" y1="16" x2="34.5" y2="23" gradientUnits="userSpaceOnUse">
<stop stop-color="#404040"/>
<stop offset="0.510417" stop-color="white" stop-opacity="0"/>
<stop offset="0.989583" stop-color="#484848" stop-opacity="0"/>
</linearGradient>
<clipPath id="clip0_163_1094">
<rect width="36.87" height="23.64" fill="white"/>
</clipPath>
</defs>
</svg>
