<svg width="27" height="28" viewBox="0 0 27 28" fill="none" xmlns="http://www.w3.org/2000/svg">
<g clip-path="url(#clip0_163_1138)">
<path d="M19 14C19.0349 15.5102 18.469 16.9724 17.4264 18.0655C16.3839 19.1587 14.9501 19.7933 13.44 19.83C12.6893 19.8157 11.9487 19.6535 11.2608 19.3526C10.5728 19.0517 9.95092 18.6181 9.43075 18.0766C8.91059 17.535 8.50234 16.8962 8.22938 16.1967C7.95642 15.4972 7.82411 14.7507 7.84003 14C7.80513 12.4872 8.37216 11.0224 9.41654 9.92739C10.4609 8.83237 11.8973 8.1967 13.41 8.16C14.1612 8.17427 14.9021 8.33689 15.5902 8.63852C16.2783 8.94015 16.9 9.37483 17.4195 9.91756C17.939 10.4603 18.346 11.1004 18.6173 11.801C18.8885 12.5016 19.0186 13.2489 19 14ZM25.1 11.12H24C23.5641 11.0992 23.1537 10.9087 22.8565 10.5891C22.5593 10.2695 22.3991 9.84626 22.41 9.41C22.416 9.17926 22.4718 8.95254 22.5737 8.74541C22.6755 8.53827 22.8209 8.35563 23 8.21L23.68 7.51C24.0027 7.16383 24.1821 6.70822 24.1821 6.235C24.1821 5.76179 24.0027 5.30617 23.68 4.96L22.08 3.35C21.9204 3.18871 21.7304 3.06061 21.521 2.97308C21.3116 2.88555 21.087 2.84032 20.86 2.84C20.4019 2.84175 19.9631 3.02516 19.64 3.35L19 4C18.8559 4.17359 18.6757 4.31364 18.4719 4.41036C18.2681 4.50709 18.0456 4.55815 17.82 4.56C17.399 4.55587 16.9951 4.39285 16.6891 4.10358C16.3831 3.81431 16.1977 3.42014 16.17 3V1.83C16.181 1.36358 16.0095 0.911296 15.692 0.569479C15.3744 0.227662 14.936 0.0233278 14.47 0L12.36 0C11.8923 0.0182319 11.4508 0.221021 11.1322 0.563987C10.8136 0.906953 10.6438 1.36216 10.66 1.83V2.94C10.6574 3.37852 10.4813 3.79819 10.1703 4.10734C9.85928 4.41649 9.43856 4.59001 9.00003 4.59C8.78051 4.58962 8.56374 4.54107 8.36504 4.44776C8.16633 4.35446 7.99052 4.21868 7.85003 4.05L7.18003 3.35C6.86986 3.03029 6.44542 2.84684 6.00003 2.84C5.54187 2.84175 5.10312 3.02516 4.78003 3.35L3.20003 5C2.87651 5.34173 2.69621 5.79442 2.69621 6.265C2.69621 6.73558 2.87651 7.18827 3.20003 7.53L3.85003 8.22C4.09103 8.44326 4.26218 8.73156 4.34277 9.05004C4.42337 9.36851 4.40996 9.70352 4.30417 10.0145C4.19839 10.3256 4.00475 10.5993 3.74668 10.8025C3.48861 11.0058 3.17717 11.13 2.85003 11.16H1.75003C1.29013 11.1625 0.849503 11.345 0.522439 11.6683C0.195374 11.9917 0.00786114 12.4302 2.89285e-05 12.89V15.1C-0.00264336 15.5677 0.179921 16.0175 0.50783 16.351C0.835739 16.6845 1.28233 16.8747 1.75003 16.88H2.81003C3.13731 16.9076 3.44947 17.0299 3.70834 17.232C3.9672 17.4341 4.16156 17.7073 4.26765 18.0182C4.37374 18.329 4.38695 18.664 4.30568 18.9822C4.22441 19.3005 4.05217 19.5881 3.81003 19.81L3.16003 20.49C2.85203 20.8378 2.68534 21.2883 2.69274 21.7528C2.70015 22.2173 2.88111 22.6622 3.20003 23L4.75003 24.62C4.90837 24.7933 5.10164 24.931 5.31711 25.0241C5.53258 25.1171 5.76534 25.1635 6.00003 25.16C6.22537 25.1589 6.44828 25.1133 6.65593 25.0258C6.86359 24.9382 7.05189 24.8105 7.21003 24.65L7.89003 23.95C8.02699 23.7874 8.19655 23.6553 8.38774 23.5623C8.57894 23.4692 8.78753 23.4174 9.00003 23.41C9.43334 23.4178 9.84641 23.5948 10.151 23.9031C10.4556 24.2114 10.6275 24.6266 10.63 25.06V26.17C10.6165 26.6405 10.7899 27.0971 11.1123 27.4401C11.4346 27.783 11.8796 27.9843 12.35 28H14.46C14.9278 27.9818 15.3693 27.779 15.6879 27.436C16.0065 27.093 16.1763 26.6378 16.16 26.17V25.06C16.1626 24.6266 16.3345 24.2114 16.6391 23.9031C16.9436 23.5948 17.3567 23.4178 17.79 23.41C18.0227 23.4132 18.2518 23.4677 18.461 23.5697C18.6702 23.6717 18.8542 23.8186 19 24L19.65 24.68C19.8083 24.8418 19.9974 24.9703 20.206 25.058C20.4146 25.1458 20.6387 25.191 20.865 25.191C21.0914 25.191 21.3154 25.1458 21.5241 25.058C21.7327 24.9703 21.9217 24.8418 22.08 24.68L23.61 23C23.9327 22.6538 24.1121 22.1982 24.1121 21.725C24.1121 21.2518 23.9327 20.7962 23.61 20.45L22.93 19.75C22.7657 19.5963 22.6347 19.4105 22.5452 19.2041C22.4558 18.9976 22.4098 18.775 22.41 18.55C22.4095 18.1206 22.5745 17.7075 22.8705 17.3965C23.1666 17.0856 23.5711 16.9006 24 16.88H25.05C25.2742 16.8751 25.4951 16.8248 25.6993 16.7322C25.9035 16.6396 26.0868 16.5066 26.2382 16.3412C26.3896 16.1757 26.5059 15.9814 26.5802 15.7698C26.6544 15.5582 26.6849 15.3337 26.67 15.11V12.89C26.6878 12.6673 26.6599 12.4433 26.5879 12.2318C26.516 12.0202 26.4016 11.8256 26.2518 11.6599C26.102 11.4941 25.9199 11.3607 25.7167 11.2679C25.5134 11.1751 25.2934 11.1247 25.07 11.12H25.1Z" fill="#58595B"/>
</g>
<defs>
<clipPath id="clip0_163_1138">
<rect width="26.67" height="28" fill="white"/>
</clipPath>
</defs>
</svg>
