<svg width="32" height="32" viewBox="0 0 32 32" fill="none" xmlns="http://www.w3.org/2000/svg">
<g clip-path="url(#clip0_163_1111)">
<path d="M21.9886 3.10857C21.9886 4.83429 17.0629 6.21714 10.9943 6.21714C4.92571 6.21714 0 4.83429 0 3.10857C0 1.38286 4.92571 0 10.9943 0C17.0629 0 21.9886 1.39429 21.9886 3.10857Z" fill="#DDB1FF"/>
<path d="M10.9943 8.29714C4.94857 8.29714 0 6.85714 0 5.18857V11.4286C0 13.0971 4.94857 14.5371 10.9943 14.5371C17.04 14.5371 21.9886 13.0971 21.9886 11.4286V5.18857C21.9886 6.84571 17.04 8.29714 10.9943 8.29714Z" fill="#B36CEA"/>
<path d="M10.9943 16.5943C4.94857 16.5943 0 15.1429 0 13.4857V19.7029C0 21.3714 4.94857 22.8571 10.9943 22.8571C17.04 22.8571 21.9886 21.4171 21.9886 19.7486V13.4857C21.9886 15.1429 17.04 16.5943 10.9943 16.5943Z" fill="#B36CEA"/>
<path d="M10.9943 24.8914C4.94857 24.8914 0 23.44 0 21.7829V28C0 29.7143 4.94857 31.1086 10.9943 31.1086C17.04 31.1086 21.9886 29.7143 21.9886 28V21.7829C21.9886 23.44 17.04 24.8914 10.9943 24.8914Z" fill="#B36CEA"/>
<path d="M24.9714 29.3257C28.8532 29.3257 32 26.1789 32 22.2972C32 18.4154 28.8532 15.2686 24.9714 15.2686C21.0897 15.2686 17.9429 18.4154 17.9429 22.2972C17.9429 26.1789 21.0897 29.3257 24.9714 29.3257Z" fill="#414042"/>
<path d="M24.9714 29.3257C28.8532 29.3257 32 26.1789 32 22.2972C32 18.4154 28.8532 15.2686 24.9714 15.2686C21.0897 15.2686 17.9429 18.4154 17.9429 22.2972C17.9429 26.1789 21.0897 29.3257 24.9714 29.3257Z" fill="url(#paint0_linear_163_1111)" fill-opacity="0.8"/>
<path d="M23.12 19.3257H24.6743L26.48 24.8914H25.1429L24.3886 22.0686C24.2286 21.5086 24.08 20.8571 23.92 20.2743C23.7829 20.8571 23.6229 21.5086 23.4629 22.0686L22.7086 24.8914H21.3143L23.12 19.3257ZM22.5029 22.5829H25.2686V23.5657H22.5029V22.5829Z" fill="white"/>
<path d="M27.04 19.3257H28.3429V24.8914H27.04V19.3257Z" fill="white"/>
</g>
<defs>
<linearGradient id="paint0_linear_163_1111" x1="19.5" y1="16.5" x2="36.5" y2="34" gradientUnits="userSpaceOnUse">
<stop stop-color="#B36CEA"/>
<stop offset="0.333333" stop-color="#323232"/>
<stop offset="0.640625" stop-color="#676469"/>
<stop offset="1" stop-color="white"/>
</linearGradient>
<clipPath id="clip0_163_1111">
<rect width="32" height="31.1086" fill="white"/>
</clipPath>
</defs>
</svg>
