<svg width="33" height="32" viewBox="0 0 33 32" fill="none" xmlns="http://www.w3.org/2000/svg">
<path d="M0 32C1.81941 24.5862 6.91375 19.4337 12.7358 19.0259C19.1038 18.5811 24.9987 23.9005 27 32H0Z" fill="#E4B81B"/>
<path d="M13.32 17.29C16.6503 17.29 19.35 14.4694 19.35 10.99C19.35 7.51061 16.6503 4.69 13.32 4.69C9.98976 4.69 7.29004 7.51061 7.29004 10.99C7.29004 14.4694 9.98976 17.29 13.32 17.29Z" fill="#F7D86B"/>
<path d="M22.35 0H30C31.39 0 32 0.61 32 1.37V5.87C32.008 6.2635 31.8601 6.64421 31.5884 6.929C31.3167 7.21379 30.9434 7.37952 30.55 7.39H22.84L20.89 9.39V1.54C20.8819 1.14287 21.0306 0.758549 21.3038 0.470293C21.5771 0.182038 21.953 0.0130698 22.35 0Z" fill="#E7C30B"/>
<g filter="url(#filter0_d_163_1088)">
<path d="M23.98 2.72997L28.81 2.65997" stroke="#F5F5F5" stroke-width="0.57" stroke-miterlimit="10"/>
</g>
<path d="M24 4.11999L28.83 4.04999" stroke="white" stroke-width="0.57" stroke-miterlimit="10"/>
<defs>
<filter id="filter0_d_163_1088" x="19.9758" y="2.375" width="12.8383" height="8.63995" filterUnits="userSpaceOnUse" color-interpolation-filters="sRGB">
<feFlood flood-opacity="0" result="BackgroundImageFix"/>
<feColorMatrix in="SourceAlpha" type="matrix" values="0 0 0 0 0 0 0 0 0 0 0 0 0 0 0 0 0 0 127 0" result="hardAlpha"/>
<feOffset dy="4"/>
<feGaussianBlur stdDeviation="2"/>
<feComposite in2="hardAlpha" operator="out"/>
<feColorMatrix type="matrix" values="0 0 0 0 0 0 0 0 0 0 0 0 0 0 0 0 0 0 0.25 0"/>
<feBlend mode="normal" in2="BackgroundImageFix" result="effect1_dropShadow_163_1088"/>
<feBlend mode="normal" in="SourceGraphic" in2="effect1_dropShadow_163_1088" result="shape"/>
</filter>
</defs>
</svg>
